<?xml version="1.0" encoding="utf-8"?>
<!-- Generator: Adobe Illustrator 23.0.5, SVG Export Plug-In . SVG Version: 6.00 Build 0)  -->
<svg version="1.1" id="Layer_1" xmlns="http://www.w3.org/2000/svg" xmlns:xlink="http://www.w3.org/1999/xlink" x="0px" y="0px"
	 viewBox="0 0 122.9 122.3" style="enable-background:new 0 0 122.9 122.3;" xml:space="preserve">
<style type="text/css">
	.st0{fill:url(#SVGID_1_);}
</style>
<title>mobile-outline</title>
<linearGradient id="SVGID_1_" gradientUnits="userSpaceOnUse" x1="1.913389e-02" y1="61.1654" x2="122.8502" y2="61.1654">
	<stop  offset="0" style="stop-color:#2F4E89"/>
	<stop  offset="0.1533" style="stop-color:#3A5983"/>
	<stop  offset="0.4252" style="stop-color:#577774"/>
	<stop  offset="0.7814" style="stop-color:#87A85C"/>
	<stop  offset="1" style="stop-color:#A7C94B"/>
</linearGradient>
<path class="st0" d="M52.1,68.5c2.9,3.1,6.1,6,9.5,8.5c3.7,2.7,7.6,5.2,11.7,7.3l0.2-0.1c0.3-0.2,0.6-0.6,1-0.9s0.6-0.7,0.9-1
	l1.1-1.5c0.1-0.2,0.2-0.3,0.3-0.4c4.3-5.7,9.7-12.5,18.3-8.5c0.2,0.1,0.4,0.2,0.5,0.3c7,4.1,14.2,8.2,21.2,12.2
	c0.2,0.1,0.3,0.2,0.5,0.3l0,0c1.7,1.2,3.2,2.8,4.1,4.7c0.9,2,1.4,4.1,1.4,6.3l0,0c0,2.1-0.3,4.1-0.9,6.1c-0.6,2.1-1.5,4.1-2.6,6.1
	c-1.3,2.4-3.1,4.5-5.2,6.3c-2,1.7-4.2,3.1-6.5,4.1h-0.1c-2.1,1-4.4,1.7-6.7,2.3c-2.2,0.6-4.5,1-6.7,1.3c-3.5,0.5-7,0.6-10.5,0.3
	c-3.5-0.3-6.9-1-10.2-2c-3.4-1.1-6.7-2.4-9.9-4c-3.5-1.7-6.9-3.6-10.2-5.7l-0.8-0.5c-3.1-1.9-6.4-4-9.7-6.5l0,0
	c-6.9-5.2-13.3-11.2-19-17.7c-5.6-6.3-10.4-13.1-14.5-20.4c-3.6-6.4-6.3-13.4-8-20.6c-1.5-6.4-1.8-13.1-0.8-19.6
	c0.6-3.9,1.8-7.6,3.6-11.1c1.7-3.2,4-6.1,6.8-8.4c2.8-2.2,6-3.9,9.5-4.8c3.7-0.9,7.5-1.2,11.2-0.9c1,0.1,2,0.4,2.8,0.9
	c0.8,0.5,1.5,1.3,2,2.1L50.1,26c1.2,1.5,2,3.3,2.3,5.3c0.2,1.9,0,3.8-0.8,5.6l0,0c-0.6,1.5-1.5,2.8-2.6,4c-1.1,1.2-2.2,2.2-3.5,3.1
	c-0.7,0.6-1.7,1.3-2.6,2L42.7,46c-1.1,0.8-2.2,1.6-3.2,2.6c-0.4,0.3-0.7,0.7-0.9,1.2c0,0.1,0.1,0,0.2,0.2l0.3,0.5
	c1.1,1.8,3.3,5.2,5.8,8.7C47.1,62.5,49.5,65.6,52.1,68.5L52.1,68.5z M57.5,82.4c-3.7-2.8-7.2-5.9-10.4-9.3
	c-2.8-3.2-5.4-6.6-7.8-10.1c-2.5-3.6-4.8-7.1-5.9-9l-0.3-0.4c-1-1.2-1.5-2.8-1.3-4.4c0.3-2.1,1.3-4.1,2.9-5.5c1.3-1.2,2.6-2.3,4-3.3
	l0,0c0.8-0.6,1.6-1.1,2.3-1.7l0.2-0.2c1-0.7,1.9-1.5,2.7-2.3c0.6-0.6,1-1.3,1.4-2.1c0.3-0.6,0.4-1.3,0.3-2c-0.1-0.8-0.5-1.5-1-2.1
	c-0.1-0.1-0.2-0.3-0.3-0.5L30.9,6.9c-2.9-0.3-5.8,0-8.6,0.7c-2.6,0.7-4.9,1.9-7,3.5c-2.1,1.7-3.8,3.8-5.1,6.3
	c-1.4,2.8-2.4,5.8-2.9,8.9c-0.8,5.7-0.6,11.4,0.7,17c1.5,6.6,4,12.9,7.4,18.8C19.2,69,23.8,75.4,29,81.3C34.4,87.4,40.5,93,47,98
	c3,2.3,6.3,4.3,9.3,6.1l0.8,0.5c3.1,1.9,6.3,3.7,9.5,5.3c2.9,1.4,5.8,2.6,8.9,3.6c2.9,0.9,5.8,1.5,8.8,1.8c3,0.3,6,0.2,8.9-0.3
	c2-0.3,4-0.7,6-1.2c1.9-0.5,3.7-1.1,5.5-1.9h0.1c1.8-0.8,3.4-1.8,4.9-3.1c1.5-1.3,2.7-2.8,3.7-4.5c0.8-1.5,1.5-3,2-4.6
	c0.4-1.4,0.6-2.8,0.7-4.2c0-1.2-0.2-2.3-0.7-3.3c-0.4-0.8-1-1.6-1.8-2.1c-5.4-3.9-14.9-8.6-21-12.1l-0.3-0.2l0.1,0.1l-0.1-0.1
	c-3.8-1.7-7.2,2.8-10.1,6.5l-0.2,0.2c-0.5,0.7-1,1.3-1.4,1.8s-1,1.2-1.4,1.6c-0.5,0.5-1.1,1-1.7,1.5c-0.7,0.5-1.4,0.9-2.2,1.2
	c-0.7,0.3-1.5,0.4-2.3,0.4c-0.7,0-1.4-0.2-2-0.5l-0.3-0.1C66.1,88.2,61.7,85.5,57.5,82.4z"/>
</svg>
