<?xml version="1.0" encoding="utf-8"?>
<!-- Generator: Adobe Illustrator 23.0.5, SVG Export Plug-In . SVG Version: 6.00 Build 0)  -->
<svg version="1.1" id="Layer_1" xmlns="http://www.w3.org/2000/svg" xmlns:xlink="http://www.w3.org/1999/xlink" x="0px" y="0px"
	 viewBox="0 0 119.4 122.9" style="enable-background:new 0 0 119.4 122.9;" xml:space="preserve">
<style type="text/css">
	.st0{fill:url(#SVGID_1_);}
</style>
<title>email-address</title>
<linearGradient id="SVGID_1_" gradientUnits="userSpaceOnUse" x1="0" y1="61.4329" x2="119.45" y2="61.4329">
	<stop  offset="0" style="stop-color:#2F4E89"/>
	<stop  offset="0.1533" style="stop-color:#3A5983"/>
	<stop  offset="0.4252" style="stop-color:#577774"/>
	<stop  offset="0.7814" style="stop-color:#87A85C"/>
	<stop  offset="1" style="stop-color:#A7C94B"/>
</linearGradient>
<path class="st0" d="M0,58.7v-5.1l39.8,34.8L0.5,119.2c-0.3-0.8-0.5-1.6-0.5-2.5V58.7L0,58.7z M82,52.7c-0.1,2.1-0.4,4.2-1,6.2
	c-0.5,1.8-1.4,3.4-2.5,4.8c-1,1.3-2.3,2.4-3.8,3.2c-1.5,0.7-3.2,1.1-4.9,1.1c-0.7,0-1.4-0.1-2.1-0.3c-0.7-0.2-1.3-0.4-1.9-0.8
	c-0.6-0.3-1.1-0.7-1.6-1.2c-0.3-0.3-0.5-0.5-0.7-0.8c-1.7,1.9-4.1,3-6.7,2.9c-0.9,0-1.7-0.1-2.5-0.4c-0.8-0.3-1.5-0.7-2.2-1.2l0,0
	c-0.7-0.5-1.2-1.2-1.7-1.9c-0.5-0.8-0.9-1.6-1.2-2.5l0,0c-0.6-2-0.8-4.2-0.5-6.3l0,0c0.2-2,0.7-4,1.5-6c0.7-1.7,1.6-3.3,2.8-4.7
	c1.1-1.3,2.5-2.4,4-3.1c1.5-0.7,3.1-1,4.8-1c1.2,0,2.5,0.1,3.7,0.5c1.1,0.3,2.2,0.8,3.2,1.4l1.6,1.1c0.2,0.1,0.3,0.4,0.3,0.6
	l-1.4,15c-0.2,0.8-0.1,1.5,0.3,2.2c0.4,0.4,1,0.7,1.5,0.6c0.6,0,1.2-0.2,1.6-0.6c0.6-0.5,1.1-1.2,1.4-1.9c0.5-0.9,0.9-2,1.1-3
	c0.3-1.3,0.4-2.5,0.5-3.8c0.2-2.5-0.1-5-0.7-7.4c-0.5-2-1.4-3.8-2.8-5.4c-1.3-1.5-2.9-2.6-4.7-3.3c-2.1-0.8-4.3-1.2-6.5-1.1
	c-1.5,0-3,0.2-4.5,0.6c-1.4,0.4-2.7,1-3.9,1.8c-1.2,0.8-2.4,1.8-3.3,2.9c-1,1.2-1.9,2.5-2.5,3.9c-0.7,1.5-1.3,3.1-1.7,4.8
	c-0.4,1.8-0.7,3.6-0.7,5.4l0,0c-0.2,2.6,0,5.2,0.7,7.7c0.5,2,1.4,3.9,2.8,5.6c1.3,1.5,2.9,2.7,4.8,3.4c2.2,0.8,4.5,1.2,6.8,1.2
	c0.7,0,1.4,0,2.2-0.1c0.7-0.1,1.5-0.2,2.3-0.4c0.8-0.2,1.5-0.3,2.1-0.5c0.6-0.2,1.1-0.4,1.7-0.6c0.3-0.1,0.7,0,0.8,0.3c0,0,0,0,0,0
	c0,0.1,0,0.1,0,0.2l1,4.2c0.1,0.3-0.1,0.5-0.3,0.7c-0.6,0.4-1.3,0.7-2,1c-0.8,0.3-1.6,0.6-2.5,0.8c-0.9,0.2-1.8,0.4-2.7,0.5
	c-0.9,0.1-1.8,0.2-2.8,0.2c-4.2,0.1-8.4-0.8-12.2-2.8c-1.6-0.9-3.1-2.1-4.4-3.4c-1.3-1.4-2.3-3-3.1-4.8l0,0c-0.8-1.9-1.4-3.9-1.7-6
	c-0.4-2.4-0.5-4.7-0.4-7.1c0.1-2.3,0.4-4.6,1-6.9C39,46,39.7,44,40.8,42c1-1.8,2.2-3.5,3.6-5c1.4-1.5,3-2.8,4.7-3.8
	c1.8-1,3.7-1.8,5.7-2.4c2.1-0.5,4.2-0.8,6.3-0.8c4-0.1,8,0.9,11.5,2.8c1.6,0.9,3,2,4.3,3.4c1.2,1.4,2.2,2.9,3,4.6
	c0.8,1.8,1.4,3.7,1.8,5.6C82,48.5,82.1,50.6,82,52.7L82,52.7z M56.3,55.7c-0.1,0.9-0.1,1.9,0,2.8c0.1,0.7,0.2,1.3,0.5,1.9
	c0.2,0.4,0.5,0.7,0.8,1c0.4,0.2,0.8,0.3,1.2,0.3c0.3,0,0.6-0.1,0.9-0.2c0.3-0.2,0.6-0.4,0.9-0.7c0.3-0.4,0.6-0.7,0.8-1.2
	c0.3-0.5,0.5-1,0.7-1.6l1-11h-0.2c-0.2,0-0.5,0-0.7,0c-0.8,0-1.5,0.2-2.3,0.5c-0.7,0.3-1.2,0.8-1.6,1.4c-0.5,0.8-0.9,1.7-1.2,2.7
	C56.7,53,56.5,54.3,56.3,55.7L56.3,55.7z M0.2,43.5C1,40.1,5.7,38,8.3,36.1V21.9c0-3.3,2.7-6,6-6h22.5L58.3,0.6
	c1.1-0.8,2.6-0.8,3.7,0l21.1,15.3h22c3.3,0,6,2.7,6,6v14.2c2.8,2,8.3,4.7,8.3,8.5v0.2l-14.3,12.1v-35H14.3v34L0.2,43.5z M119.5,54.8
	v61.9c0,1.4-0.5,2.8-1.4,3.9L78.3,89.4C78.3,89.4,119.4,54.8,119.5,54.8z M108.5,122.9H8.3l37.4-29.4l11.2,9.8
	c1.5,1.3,3.7,1.3,5.2-0.1l10.3-8.7L108.5,122.9L108.5,122.9z"/>
</svg>
