<?xml version="1.0" encoding="utf-8"?>
<!-- Generator: Adobe Illustrator 23.0.5, SVG Export Plug-In . SVG Version: 6.00 Build 0)  -->
<svg version="1.1"
	 id="Capa_1" image-rendering="optimizeQuality" text-rendering="geometricPrecision" shape-rendering="geometricPrecision"
	 xmlns="http://www.w3.org/2000/svg" xmlns:xlink="http://www.w3.org/1999/xlink" x="0px" y="0px" viewBox="0 0 512 406"
	 style="enable-background:new 0 0 512 406;" xml:space="preserve">
<style type="text/css">
	.st0{fill-rule:evenodd;clip-rule:evenodd;fill:url(#SVGID_1_);}
</style>
<linearGradient id="SVGID_1_" gradientUnits="userSpaceOnUse" x1="1.131425e-03" y1="203.0235" x2="512" y2="203.0235">
	<stop  offset="0" style="stop-color:#2F4E89"/>
	<stop  offset="0.1533" style="stop-color:#3A5983"/>
	<stop  offset="0.4252" style="stop-color:#577774"/>
	<stop  offset="0.7814" style="stop-color:#87A85C"/>
	<stop  offset="1" style="stop-color:#A7C94B"/>
</linearGradient>
<path class="st0" d="M389.5,266.3c-14,15.4-30.3,29.1-48.6,40.2c-2.3,1.7-5.3,1.9-7.8,0.3c-27-17.2-49.8-37.9-67.6-60.4
	c-24.6-30.9-40.2-65.2-45.5-98.2c-5.4-33.5-0.4-65.7,16.3-91.9c6.6-10.3,14.9-19.8,25.2-27.9C284.9,9.7,311.7-0.2,338.5,0
	c25.8,0.2,51.2,9.8,73.1,29.9c7.7,7,14.2,15.1,19.5,23.8c17.9,29.5,21.8,67.1,13.9,105.3C437.3,196.6,418,234.9,389.5,266.3
	L389.5,266.3L389.5,266.3z M199.2,215.3c8.4,0,15.2,6.8,15.2,15.2c0,8.4-6.8,15.2-15.2,15.2H68.6l-33.9,130H477l-35.2-131.1
	c-2.2-8.1,2.6-16.4,10.7-18.6c8.1-2.2,16.4,2.6,18.6,10.7l40.1,149.4c0.5,1.5,0.8,3.1,0.8,4.8c0,8.4-6.8,15.2-15.2,15.2H15.1v0
	c-1.3,0-2.5-0.2-3.8-0.5c-8.1-2.1-12.9-10.4-10.9-18.5L42,227.9c1.2-7.1,7.5-12.6,15-12.6L199.2,215.3L199.2,215.3z M333.4,63
	c32.8,0,59.4,26.6,59.4,59.4s-26.6,59.4-59.4,59.4S274,155.2,274,122.4S300.6,63,333.4,63z"/>
</svg>
