<?xml version="1.0" encoding="utf-8"?>
<!-- Generator: Adobe Illustrator 23.0.5, SVG Export Plug-In . SVG Version: 6.00 Build 0)  -->
<svg version="1.1" id="Capa_1" xmlns="http://www.w3.org/2000/svg" xmlns:xlink="http://www.w3.org/1999/xlink" x="0px" y="0px"
	 viewBox="0 0 30 30" style="enable-background:new 0 0 30 30;" xml:space="preserve">
<style type="text/css">
	.st0{fill:url(#SVGID_1_);}
</style>
<linearGradient id="SVGID_1_" gradientUnits="userSpaceOnUse" x1="3" y1="15" x2="27" y2="15">
	<stop  offset="0" style="stop-color:#2F4E89"/>
	<stop  offset="0.1533" style="stop-color:#3A5983"/>
	<stop  offset="0.4252" style="stop-color:#577774"/>
	<stop  offset="0.7814" style="stop-color:#87A85C"/>
	<stop  offset="1" style="stop-color:#A7C94B"/>
</linearGradient>
<path class="st0" d="M15,3C8.4,3,3,8.4,3,15c0,2.3,0.6,4.4,1.7,6.2L3.1,27l6-1.6c1.7,1,3.8,1.6,5.9,1.6c6.6,0,12-5.4,12-12
	S21.6,3,15,3z M10.9,9.4c0.2,0,0.4,0,0.6,0c0.2,0,0.4,0,0.7,0.5c0.3,0.6,0.8,2.1,0.9,2.2s0.1,0.3,0,0.5c-0.1,0.2-0.1,0.3-0.3,0.5
	c-0.1,0.2-0.3,0.4-0.4,0.5c-0.1,0.1-0.3,0.3-0.1,0.6s0.8,1.3,1.7,2.1c1.1,1,2.1,1.3,2.4,1.5c0.3,0.1,0.5,0.1,0.6-0.1
	c0.2-0.2,0.7-0.9,0.9-1.2c0.2-0.3,0.4-0.2,0.7-0.1c0.3,0.1,1.7,0.8,2,1s0.5,0.2,0.6,0.3c0.1,0.1,0.1,0.7-0.2,1.4
	c-0.2,0.7-1.5,1.4-2,1.4c-0.5,0.1-1.1,0.2-3.6-0.7c-3-1.2-4.9-4.3-5.1-4.5c-0.1-0.2-1.2-1.6-1.2-3.1c0-1.5,0.8-2.2,1-2.5
	C10.4,9.5,10.7,9.4,10.9,9.4z"/>
</svg>
